<?xml version="1.0" encoding="utf-8"?>
<!-- Generator: Adobe Illustrator 27.1.1, SVG Export Plug-In . SVG Version: 6.00 Build 0)  -->
<svg version="1.1" id="Calque_1" xmlns="http://www.w3.org/2000/svg" xmlns:xlink="http://www.w3.org/1999/xlink" x="0px" y="0px"
	 viewBox="0 0 1092.7 903.6" style="enable-background:new 0 0 1092.7 903.6;" xml:space="preserve">
<style type="text/css">
	.st0{fill:#FFFFFF;}
</style>
<path id="Union_9" class="st0" d="M459.9,817.6v-55h-55c-47.5,0-86-38.5-86-86c0-47.5,38.5-86,86-86h55v-56c0-47.5,38.5-86,86-86
	c47.5,0,86,38.5,86,86v56h56c47.5,0,86,38.5,86,86c0,47.5-38.5,86-86,86h-56v55c0,47.5-38.5,86-86,86
	C498.4,903.6,459.9,865.1,459.9,817.6z"/>
<path id="Union_6" class="st0" d="M884.5,663.9L546.4,301.2L208.2,663.9c-45,48.7-120.9,51.7-169.6,6.8s-51.7-120.9-6.8-169.6
	c0.3-0.3,0.6-0.6,0.8-0.9L457.5,44.6c46.6-49.1,124.1-51.1,173.1-4.5c1.5,1.5,3.1,3,4.5,4.5l424.9,455.6
	c45.4,48.2,43.2,124.2-5.1,169.6c-48.2,45.4-124.2,43.2-169.6-5.1C885.1,664.5,884.8,664.2,884.5,663.9z"/>
</svg>
